# xmcd CD database file
#
# Track frame offsets:
#	150
#	19041
#	40522
#	56423
#	78559
#	95409
#	112504
#	128712
#	149152
#
# Disc length: 2284 seconds
#
# Revision: 0
# Processed by: cddbd v1.5.1PL0 Copyright (c) Steve Scherf et al.
# Submitted via: CDex 1.51
#
DISCID=6a08ea09
DTITLE=Laux Trio and Joe Muranyi - Wonderful World
DYEAR=2002
DGENRE=Jazz
TTITLE0=Wonderful World
TTITLE1=I Dig Satch
TTITLE2=Storyville Swing
TTITLE3=Can't We Be Friends
TTITLE4=Ja-Da
TTITLE5=Vágyom egy no után
TTITLE6=Undecided
TTITLE7=Jeepers Creepers
TTITLE8=1206 Decatur Street
EXTD=YEAR: 2002
EXTT0=
EXTT1=
EXTT2=
EXTT3=
EXTT4=
EXTT5=
EXTT6=
EXTT7=
EXTT8=
PLAYORDER=
